<?xml version="1.0" encoding="UTF-8" standalone="no"?>
<svg
   xmlns:sketch="http://www.bohemiancoding.com/sketch/ns"
   xmlns:dc="http://purl.org/dc/elements/1.1/"
   xmlns:cc="http://creativecommons.org/ns#"
   xmlns:rdf="http://www.w3.org/1999/02/22-rdf-syntax-ns#"
   xmlns:svg="http://www.w3.org/2000/svg"
   xmlns="http://www.w3.org/2000/svg"
   xmlns:sodipodi="http://sodipodi.sourceforge.net/DTD/sodipodi-0.dtd"
   xmlns:inkscape="http://www.inkscape.org/namespaces/inkscape"
   width="61px"
   height="78px"
   viewBox="0 0 61 78"
   version="1.1"
   id="svg3408"
   inkscape:version="0.91 r13725"
   sodipodi:docname="letter-n-black.svg">
  <metadata
     id="metadata3423">
    <rdf:RDF>
      <cc:Work
         rdf:about="">
        <dc:format>image/svg+xml</dc:format>
        <dc:type
           rdf:resource="http://purl.org/dc/dcmitype/StillImage" />
        <dc:title>n</dc:title>
      </cc:Work>
    </rdf:RDF>
  </metadata>
  <sodipodi:namedview
     pagecolor="#ff7fff"
     bordercolor="#666666"
     borderopacity="1"
     objecttolerance="10"
     gridtolerance="10"
     guidetolerance="10"
     inkscape:pageopacity="0"
     inkscape:pageshadow="2"
     inkscape:window-width="1855"
     inkscape:window-height="1176"
     id="namedview3421"
     showgrid="false"
     inkscape:zoom="3.025641"
     inkscape:cx="30.5"
     inkscape:cy="39"
     inkscape:window-x="65"
     inkscape:window-y="24"
     inkscape:window-maximized="1"
     inkscape:current-layer="svg3408" />
  <!-- Generator: Sketch 3.3.3 (12081) - http://www.bohemiancoding.com/sketch -->
  <title
     id="title3410">n</title>
  <desc
     id="desc3412">Created with Sketch.</desc>
  <defs
     id="defs3414" />
  <g
     id="Page-1"
     stroke="none"
     stroke-width="1"
     fill="none"
     fill-rule="evenodd"
     sketch:type="MSPage"
     style="fill:#222b00">
    <g
       id="n"
       sketch:type="MSLayerGroup"
       fill="#FFFFFF"
       style="fill:#222b00">
      <path
         d="M47.381,64.033 L47.381,0.897 L40.877,0.897 L40.877,38.647 L20.182,0.897 L12.764,0.897 L47.381,64.033"
         id="Fill-1"
         sketch:type="MSShapeGroup"
         style="fill:#222b00" />
      <path
         d="M5.353,0.897 L0.423,0.897 L0.423,77.564 L6.928,77.564 L6.928,17.299 L13.454,29.202 L13.454,77.564 L19.958,77.564 L19.958,41.068 L39.934,77.564 L47.381,77.564 L5.353,0.897"
         id="Fill-2"
         sketch:type="MSShapeGroup"
         style="fill:#222b00" />
      <path
         d="M53.907,0.897 L53.915,77.564 L60.412,77.564 L60.412,0.897 L53.907,0.897"
         id="Fill-3"
         sketch:type="MSShapeGroup"
         style="fill:#222b00" />
    </g>
  </g>
  <path
     style="fill:#000000"
     d="m 0.48983025,39.297458 0,-38.1737289 2.40833065,0 2.4083306,0 19.9761475,36.4385589 c 10.986882,20.041208 20.399684,37.219386 20.91734,38.173729 l 0.941195,1.73517 -3.57779,-0.01216 -3.577791,-0.0122 -9.908735,-18.165787 C 24.627054,49.289859 20.053643,41.115255 19.913722,41.115255 c -0.13992,0 -0.2544,8.180084 -0.2544,18.177966 l 0,18.177966 -2.974576,0 -2.974577,0 0,-24.064808 0,-24.064805 -3.158835,-5.763584 C 8.8139754,20.408019 7.2523228,17.673115 7.0809955,17.500424 6.8859773,17.303854 6.7694913,28.458097 6.7694913,47.328814 l 0,30.142373 -3.1398305,0 -3.13983055,0 0,-38.173729 z"
     id="path3502"
     inkscape:connector-curvature="0" />
  <path
     style="fill:#000000"
     d="M 31.227118,34.273838 C 22.592584,18.518795 14.975258,4.6147751 14.299725,3.3760169 l -1.22824,-2.2522878 3.5418,0.00301 3.541799,0.00301 10.046518,18.3435528 c 5.525586,10.088954 10.242995,18.602325 10.483133,18.918598 0.363464,0.478702 0.438376,-2.595112 0.447126,-18.346565 l 0.01051,-18.9216099 2.974576,0 2.974576,0 0,30.9025429 c 0,16.996398 -0.03718,30.900417 -0.08263,30.897822 -0.04545,-0.0026 -7.147246,-12.895211 -15.78178,-28.650256 z"
     id="path3504"
     inkscape:connector-curvature="0" />
  <path
     style="fill:#000000"
     d="m 54.032203,39.297458 0,-38.1737289 3.139831,0 3.13983,0 0,38.1737289 0,38.173729 -3.13983,0 -3.139831,0 0,-38.173729 z"
     id="path3506"
     inkscape:connector-curvature="0" />
</svg>
